:SAMPLES-PER-SECOND 30
:FULLY-SPECIFIED
:DEGREES
205
root  8.979421901 40.33333185 -1.911604498 -0.2299957275 -45.08099365 -1.968002319
lowerback  10.26830006 1.171030045 -2.636130095
upperback  5.386809826 1.226950049 0.4238469899
thorax  -0.2182209939 0.5163319707 1.794080019
lowerneck  -0.3202440143 7.701019764 -2.060460091
upperneck  18.05620003 10.62790012 -1.707350016
head  5.498589993 4.839550018 0.2995789945
lclavicle  0 -9.442270133e-015 7.951389973e-016
lhumerus  27.16500092 3.837800026 63.82249832
lradius  1.905892494e-031 -2.972611283e-031 122.6660004
lwrist  -7.062250077e-031 8.827812596e-032 24.95829964
lhand  -1.496451383e-031 -27.76390076 20.11240005
lfingers  90 7.125020027 -90
lthumb  89.89689403 5.08795885 91.16245106
rclavicle  0 -9.442270133e-015 7.951389973e-016
rhumerus  28.41189957 24.16200066 -76.8125
rradius  -1.634262892e-031 3.13018032e-031 117.5690002
rwrist  7.062250077e-031 2.648343779e-031 -37.96709824
rhand  -7.920061211e-032 -33.2840004 9.303460121
rfingers  -90 -7.125020027 -90
rthumb  -92.93752616 -24.25625642 -97.11982154
rfemur  -24.84399986 11.69369984 6.565100193
rtibia  -0 0 49.27529907
rfoot  -0 -18.64290047 -12.49470043
rtoes  5.373923086 19.29304026 -105.8922705
lfemur  -18.61499977 3.039299965 -9.715330124
ltibia  -0 0 63.41230011
lfoot  4.435986919e-032 -5.719110012 -1.935899973
ltoes  -4.250644065 -19.5611806 -102.515957
206
root  8.959333164 40.2073327 -1.920075492 -0.6369934082 -46.03799438 -1.731994629
lowerback  10.47780037 1.150939941 -3.016000032
upperback  5.236839771 1.164170027 0.8018540144
thorax  -0.4981220067 0.4795399904 2.402060032
lowerneck  -0.2304780036 7.815810204 -2.28331995
upperneck  18.30419922 10.84440041 -2.034579992
head  5.570199966 4.898799896 0.2463019937
lclavicle  0 -9.442270133e-015 7.951389973e-016
lhumerus  27.72640038 5.075369835 63.46969986
lradius  1.881027096e-031 -2.988407787e-031 122.1880035
lwrist  -1.412450015e-030 -4.413906298e-032 24.81130028
lhand  -1.496451383e-031 -27.76390076 20.11240005
lfingers  90 7.125020027 -90
lthumb  89.89689403 5.08795885 91.16245106
rclavicle  0 -9.442270133e-015 7.951389973e-016
rhumerus  27.86660004 24.78720093 -75.97360229
rradius  -1.664615143e-031 3.114145222e-031 118.1259995
rwrist  1.412450015e-030 2.648343779e-031 -37.56389999
rhand  -7.920061211e-032 -33.2840004 9.303460121
rfingers  -90 -7.125020027 -90
rthumb  -92.93752616 -24.25625642 -97.11982154
rfemur  -24.94459915 10.67980003 6.711979866
rtibia  -0 0 52.01800156
rfoot  -0 -17.95639992 -14.11480045
rtoes  5.373923086 19.29304026 -105.8922705
lfemur  -18.40679932 3.923769951 -10.84179974
ltibia  -0 0 63.5705986
lfoot  4.440194824e-032 -6.237840176 -1.79531002
ltoes  -4.250644065 -19.5611806 -102.515957
207
root  8.931000026 40.04711241 -1.920571102 -1.583999634 -47.09599304 -0.8939971924
lowerback  10.6019001 1.217450023 -3.560159922
upperback  5.19562006 1.19709003 0.9014089704
thorax  -0.6207789779 0.4876840115 2.806659937
lowerneck  -0.200319007 7.853449821 -2.209779978
upperneck  18.51510048 10.95639992 -2.434459925
head  5.659920216 4.921780109 0.1222039983
lclavicle  0 -9.442270133e-015 7.951389973e-016
lhumerus  28.10479927 6.057179928 63.1242981
lradius  1.871838375e-031 -2.994171861e-031 122.012001
lwrist  0 -8.827812596e-032 24.54240036
lhand  -1.496451383e-031 -27.76390076 20.11240005
lfingers  90 7.125020027 -90
lthumb  89.89689403 5.08795885 91.16245106
rclavicle  0 -9.442270133e-015 7.951389973e-016
rhumerus  27.15699959 25.19449997 -75.35299683
rradius  -1.694269265e-031 3.098111634e-031 118.6729965
rwrist  7.062250077e-031 2.648343779e-031 -37.02809906
rhand  -7.920061211e-032 -33.2840004 9.303460121
rfingers  -90 -7.125020027 -90
rthumb  -92.93752616 -24.25625642 -97.11982154
rfemur  -24.84440041 10.12380028 6.168690205
rtibia  -0 0 54.78010178
rfoot  -0 -17.16699982 -14.53489971
rtoes  5.373923086 19.29304026 -105.8922705
lfemur  -17.93040085 4.750370026 -12.4076004
ltibia  -0 0 63.31499863
lfoot  4.448179595e-032 -7.117109776 -1.710530043
ltoes  -4.250644065 -19.5611806 -102.515957
208
root  8.906244293 39.85377635 -1.921144433 -2.675003052 -48.13000488 0.1159973145
lowerback  10.73740005 1.269340038 -4.092649937
upperback  5.133220196 1.209069967 0.9559289813
thorax  -0.7692120075 0.4880709946 3.160350084
lowerneck  0.003066570032 7.939179897 -2.118599892
upperneck  18.61090088 11.13490009 -2.931309938
head  5.692289829 4.977340221 -0.04180939868
lclavicle  0 -9.442270133e-015 7.951389973e-016
lhumerus  28.03610039 6.989339828 62.92359924
lradius  1.876904738e-031 -2.990998603e-031 122.1090012
lwrist  -7.062250077e-031 1.324171889e-031 24.32060051
lhand  -1.496451383e-031 -27.76390076 20.11240005
lfingers  90 7.125020027 -90
lthumb  89.89689403 5.08795885 91.16245106
rclavicle  0 -9.442270133e-015 7.951389973e-016
rhumerus  26.23870087 25.64629936 -74.79949951
rradius  -1.725006082e-031 3.081103383e-031 119.2429962
rwrist  7.062250077e-031 1.765562519e-031 -36.68510056
rhand  -7.920061211e-032 -33.2840004 9.303460121
rfingers  -90 -7.125020027 -90
rthumb  -92.93752616 -24.25625642 -97.11982154
rfemur  -24.62520027 9.890899658 5.359940052
rtibia  -0 0 57.39659882
rfoot  -0 -16.08410072 -14.00090027
rtoes  5.373923086 19.29304026 -105.8922705
lfemur  -17.3927002 5.546999931 -14.06540012
ltibia  -0 0 62.85490036
lfoot  5.585964244e-032 -8.987460136 -1.340049982
ltoes  -4.250644065 -19.5611806 -102.515957
209
root  8.861022108 39.63977784 -1.931848864 -3.744003296 -49.54800415 1.236999512
lowerback  10.67949963 1.451570034 -4.774419785
upperback  5.022459984 1.388339996 1.028939962
thorax  -0.8814859986 0.5716400146 3.600680113
lowerneck  0.2395360023 8.053859711 -2.097239971
upperneck  18.76749992 11.35410023 -3.413619995
head  5.735330105 5.046569824 -0.1891559958
lclavicle  0 -9.442270133e-015 7.951389973e-016
lhumerus  27.57320023 7.894949913 62.82009888
lradius  1.896076317e-031 -2.978882112e-031 122.4769974
lwrist  0 -8.827812596e-032 24.17700005
lhand  -1.496451383e-031 -27.76390076 20.11240005
lfingers  90 7.125020027 -90
lthumb  89.89689403 5.08795885 91.16245106
rclavicle  0 -9.442270133e-015 7.951389973e-016
rhumerus  25.4116993 26.08359909 -74.3710022
rradius  -1.755786355e-031 3.063667461e-031 119.8170013
rwrist  0 3.531125038e-031 -36.50350189
rhand  -7.920061211e-032 -33.2840004 9.303460121
rfingers  -90 -7.125020027 -90
rthumb  -92.93752616 -24.25625642 -97.11982154
rfemur  -24.56879997 10.26509953 4.414249897
rtibia  -0 0 59.71360016
rfoot  -0 -14.69019985 -12.98960018
rtoes  5.373923086 19.29304026 -105.8922705
lfemur  -16.77610016 6.893919945 -15.6807003
ltibia  -0 0 62.40610123
lfoot  4.791892419e-032 -11.84969997 -0.3960810006
ltoes  -4.250644065 -19.5611806 -102.515957
210
root  8.824977725 39.45222089 -1.896082135 -4.768005371 -50.59300232 2.093002319
lowerback  10.65699959 1.551480055 -4.743529797
upperback  5.070280075 1.519659996 0.8809409738
thorax  -0.8280720115 0.6355950236 3.414210081
lowerneck  0.1251039952 8.02779007 -1.880360007
upperneck  18.84379959 11.31949997 -3.428920031
head  5.790579796 5.038189888 -0.2218299955
lclavicle  0 -9.442270133e-015 7.951389973e-016
lhumerus  27.41469955 8.40625 62.63270187
lradius  1.924790459e-031 -2.960409722e-031 123.0309982
lwrist  -7.062250077e-031 1.765562519e-031 24.02260017
lhand  -1.496451383e-031 -27.76390076 20.11240005
lfingers  90 7.125020027 -90
lthumb  89.89689403 5.08795885 91.16245106
rclavicle  0 -9.442270133e-015 7.951389973e-016
rhumerus  24.77269936 26.07390022 -74.32319641
rradius  -1.783731496e-031 3.047481909e-031 120.3410034
rwrist  7.062250077e-031 -0 -36.22119904
rhand  -7.920061211e-032 -33.2840004 9.303460121
rfingers  -90 -7.125020027 -90
rthumb  -92.93752616 -24.25625642 -97.11982154
rfemur  -23.96969986 10.50249958 3.631720066
rtibia  -0 0 61.48210144
rfoot  -0 -13.00730038 -11.6807003
rtoes  5.373923086 19.29304026 -105.8922705
lfemur  -16.00559998 7.915699959 -17.02869987
ltibia  -0 0 62.16159821
lfoot  4.583638971e-032 -15.64099979 3.996759892
ltoes  -4.250644065 -19.5611806 -102.515957
211
root  8.790821916 39.28088992 -1.843960079 -5.373001099 -51.40100098 2.399002075
lowerback  10.56690025 1.563519955 -4.116250038
upperback  5.211830139 1.592829943 0.6764500141
thorax  -0.6204569936 0.6748939753 2.842279911
lowerneck  0.08286889642 7.896999836 -1.843199968
upperneck  18.35840034 11.04510021 -2.929389954
head  5.612510204 4.961359978 -0.09739019722
lclavicle  0 -9.442270133e-015 7.951389973e-016
lhumerus  27.44569969 8.705920219 62.25080109
lradius  1.957532703e-031 -2.938861983e-031 123.6669998
lwrist  -1.412450015e-030 1.765562519e-031 23.87290001
lhand  -1.496451383e-031 -27.76390076 20.11240005
lfingers  90 7.125020027 -90
lthumb  89.89689403 5.08795885 91.16245106
rclavicle  0 -9.442270133e-015 7.951389973e-016
rhumerus  24.20859909 25.81749916 -74.56479645
rradius  -1.811156919e-031 3.031262881e-031 120.8580017
rwrist  0 1.324171889e-031 -35.96530151
rhand  -7.920061211e-032 -33.2840004 9.303460121
rfingers  -90 -7.125020027 -90
rthumb  -92.93752616 -24.25625642 -97.11982154
rfemur  -23.02549934 10.64859962 3.286200047
rtibia  -0 0 62.56949997
rfoot  -0 -10.66450024 -10.16629982
rtoes  5.373923086 19.29304026 -105.8922705
lfemur  -15.30580044 8.592729568 -17.8390007
ltibia  -0 0 62.19580078
lfoot  9.312592438e-032 -18.56850052 6.920879841
ltoes  -4.250644065 -19.5611806 -102.515957
